<svg xmlns="http://www.w3.org/2000/svg" viewBox="0 0 1276.44 790.63"><defs><style>.cls-1{fill:#d3d3d3;}.cls-2{fill:#e0e1e2;}.cls-3{fill:#3d3d3d;}.cls-4{fill:#9b4e4e;}.cls-5{fill:#ad5757;}</style></defs><title>activities</title><g id="Layer_6" data-name="Layer 6"><polygon class="cls-1" points="212.62 466.05 212.62 561.46 657.63 735.91 1006.52 565.02 1006.52 469.61 212.62 466.05"/><polygon class="cls-2" points="212.62 466.05 657.63 640.49 1006.52 469.61 580.19 311.96 212.62 466.05"/><ellipse class="cls-3" cx="667.36" cy="416.99" rx="21.29" ry="15.24"/><path class="cls-1" d="M657.6,419.91a113.69,113.69,0,0,0,11.42.59c3,0,5.88-.13,8.79-.36V167.51H657.6Z"/><ellipse class="cls-3" cx="652.05" cy="529.05" rx="89.47" ry="64.03"/><ellipse class="cls-3" cx="466.2" cy="468.03" rx="89.47" ry="64.03"/><circle class="cls-4" cx="667.51" cy="128.76" r="92.07"/><ellipse class="cls-5" cx="667.51" cy="120.91" rx="91.71" ry="84.21"/><path class="cls-4" d="M721.34,511.74c-10.36-20.69-38-35.5-70.48-35.5-30.56,0-56.82,13.11-68.46,31.89l-6.81-.17.41,21.85c0,29.59,33.51,53.57,74.86,53.57s74.86-24,74.86-53.57v-18Z"/><ellipse class="cls-5" cx="650.86" cy="511.85" rx="74.86" ry="53.57"/><path class="cls-4" d="M536.18,448c-10.36-20.69-38-35.49-70.48-35.49-30.56,0-56.82,13.11-68.46,31.89l-6.8-.18.4,21.86c0,29.58,33.52,53.57,74.86,53.57s74.86-24,74.86-53.57v-18Z"/><ellipse class="cls-5" cx="465.7" cy="448.09" rx="74.86" ry="53.57"/></g></svg>