<svg xmlns="http://www.w3.org/2000/svg" viewBox="0 0 1276.44 790.63"><defs><style>.cls-1{fill:#ffdbd5;}.cls-2{fill:#fff;}.cls-3{fill:none;stroke:#000;stroke-miterlimit:10;stroke-width:9px;}.cls-4{fill:#f9d0ca;}</style></defs><title>expect</title><g id="Layer_6" data-name="Layer 6"><path class="cls-1" d="M1053.83,236.66c0-113.75-92.22-206-206-206-95.4,0-175.65,64.87-199.06,152.9-23.41-88-103.65-152.9-199.06-152.9-113.76,0-206,92.22-206,206a205,205,0,0,0,30.42,107.78C368.23,530.67,648,742.38,648,742.38l.77-1,.77,1S929.35,530.67,1023.4,344.44A205,205,0,0,0,1053.83,236.66Z"/><path class="cls-2" d="M540.13,448.79H763.61a12,12,0,0,1,12,12V522a80.5,80.5,0,0,1-80.5,80.5H608.63a80.5,80.5,0,0,1-80.5-80.5V460.79a12,12,0,0,1,12-12Z"/><path class="cls-3" d="M455.88,285.85a46.12,46.12,0,0,1,92.23,0"/><path class="cls-3" d="M780.22,285.85a46.11,46.11,0,0,1,92.22,0"/><rect class="cls-4" x="402.85" y="320.44" width="189.07" height="44.58" rx="12"/><rect class="cls-4" x="738.71" y="321.21" width="189.07" height="44.58" rx="12"/></g></svg>