<svg xmlns="http://www.w3.org/2000/svg" viewBox="0 0 629 525"><defs><style>.cls-1,.cls-7{fill:#4e687c;}.cls-2,.cls-6{fill:none;}.cls-2,.cls-6,.cls-7{stroke:#fff;stroke-miterlimit:10;}.cls-2,.cls-7{stroke-width:5px;}.cls-3{fill:#f8cc54;}.cls-4{fill:#607348;}.cls-5{fill:#fff;}</style></defs><title>flowers-two</title><g id="Layer_1" data-name="Layer 1"><path class="cls-1" d="M450.92,74.25c-77.28-34.36-9.86-83.39-1,.71-8.88-84.1,67.29-50.23-1.1-.49,68.39-49.74,77.15,33.16-.13-1.2,77.28,34.36,9.86,83.4,1-.71,8.88,84.11-67.3,50.24,1.1.49C382.39,122.8,373.64,39.89,450.92,74.25Z"/><path class="cls-2" d="M450.92,74.25c-77.28-34.36-9.86-83.39-1,.71-8.88-84.1,67.29-50.23-1.1-.49,68.39-49.74,77.15,33.16-.13-1.2,77.28,34.36,9.86,83.4,1-.71,8.88,84.11-67.3,50.24,1.1.49C382.39,122.8,373.64,39.89,450.92,74.25Z"/><path class="cls-3" d="M367.35,48.53c-43.66-43.78,23.56-61.7,7.47-2C390.91-13.17,440,36.09,380.28,52c59.75-15.92,41.66,51.25-2,7.46,43.67,43.79-23.55,61.7-7.47,2-16.08,59.71-65.21,10.46-5.46-5.47C305.59,71.92,323.69,4.75,367.35,48.53Z"/><path class="cls-2" d="M367.35,48.53c-43.66-43.78,23.56-61.7,7.47-2C390.91-13.17,440,36.09,380.28,52c59.75-15.92,41.66,51.25-2,7.46,43.67,43.79-23.55,61.7-7.47,2-16.08,59.71-65.21,10.46-5.46-5.47C305.59,71.92,323.69,4.75,367.35,48.53Z"/><path class="cls-4" d="M541.34,106.8C482.69,5.2,614.67,5.2,556,106.8c58.66-101.6,124.65,12.7,7.33,12.7,117.32,0,51.33,114.3-7.33,12.7,58.66,101.6-73.32,101.6-14.67,0-58.65,101.6-124.65-12.7-7.33-12.7C416.69,119.5,482.69,5.2,541.34,106.8Z"/><circle class="cls-5" cx="549.18" cy="120" r="14"/><path class="cls-4" d="M373.74,117.3c-55.47-65.59,39.64-82.74,10.57-1.9,29.07-80.84,91.48-7.05,6.93,8.19,84.55-15.24,51.85,75.7-3.63,10.11,55.48,65.59-39.63,82.74-10.57,1.9-29.06,80.84-91.47,7.05-6.93-8.19C285.57,142.65,318.27,51.71,373.74,117.3Z"/><circle class="cls-5" cx="381.18" cy="127" r="14"/><path class="cls-4" d="M176.74,57.3c-55.47-65.59,39.64-82.74,10.57-1.9,29.07-80.84,91.48-7,6.93,8.19,84.55-15.24,51.85,75.7-3.63,10.11C246.09,139.29,151,156.44,180,75.6c-29.06,80.84-91.47,7.05-6.93-8.19C88.57,82.65,121.27-8.29,176.74,57.3Z"/><circle class="cls-5" cx="184.18" cy="67" r="14"/><path class="cls-4" d="M567.52,288.85c-49.21-13.18-8.68-53.71,4.51-4.5-13.19-49.21,42.18-34.38,6.15,1.65,36-36,50.86,19.33,1.65,6.15,49.21,13.18,8.68,53.71-4.51,4.5,13.19,49.21-42.17,34.38-6.15-1.65C533.15,331,518.31,275.67,567.52,288.85Z"/><path class="cls-4" d="M523.25,353c-75.4-20.2-13.3-82.3,6.9-6.9-20.2-75.4,64.63-52.67,9.43,2.53,55.2-55.2,77.93,29.63,2.52,9.43,75.41,20.2,13.31,82.3-6.9,6.9,20.21,75.4-64.62,52.67-9.42-2.53C470.58,417.6,447.85,332.77,523.25,353Z"/><path class="cls-4" d="M573.73,435.12c-15.6-27,19.5-27,3.9,0,15.6-27,33.15,3.38,2,3.38,31.2,0,13.65,30.4-2,3.38,15.6,27-19.5,27-3.9,0-15.6,27-33.15-3.38-2-3.38C540.58,438.5,558.13,408.1,573.73,435.12Z"/><path class="cls-4" d="M89.23,67.52c-27.6-47.8,34.5-47.8,6.9,0,27.6-47.8,58.65,6,3.45,6,55.2,0,24.15,53.78-3.45,6,27.6,47.8-34.5,47.8-6.9,0-27.6,47.8-58.65-6-3.45-6C30.58,73.5,61.63,19.72,89.23,67.52Z"/><path class="cls-4" d="M25.73,62.12c-15.6-27,19.5-27,3.9,0,15.6-27,33.15,3.38,1.95,3.38,31.2,0,13.65,30.4-1.95,3.38,15.6,27-19.5,27-3.9,0-15.6,27-33.15-3.38-1.95-3.38C-7.42,65.5,10.13,35.1,25.73,62.12Z"/><path class="cls-3" d="M552.25,203.13c-44.51-77.1,55.64-77.1,11.13,0,44.51-77.1,94.58,9.63,5.56,9.63,89,0,38.95,86.73-5.56,9.64,44.51,77.09-55.64,77.09-11.13,0-44.51,77.09-94.58-9.64-5.56-9.64C457.67,212.76,507.74,126,552.25,203.13Z"/><path class="cls-2" d="M552.25,203.13c-44.51-77.1,55.64-77.1,11.13,0,44.51-77.1,94.58,9.63,5.56,9.63,89,0,38.95,86.73-5.56,9.64,44.51,77.09-55.64,77.09-11.13,0-44.51,77.09-94.58-9.64-5.56-9.64C457.67,212.76,507.74,126,552.25,203.13Z"/><path class="cls-3" d="M446.25,160.13c-44.51-77.1,55.64-77.1,11.13,0,44.51-77.1,94.58,9.63,5.56,9.63,89,0,38.95,86.73-5.56,9.64,44.51,77.09-55.64,77.09-11.13,0-44.51,77.09-94.58-9.64-5.56-9.64C351.67,169.76,401.74,83,446.25,160.13Z"/><path class="cls-2" d="M446.25,160.13c-44.51-77.1,55.64-77.1,11.13,0,44.51-77.1,94.58,9.63,5.56,9.63,89,0,38.95,86.73-5.56,9.64,44.51,77.09-55.64,77.09-11.13,0-44.51,77.09-94.58-9.64-5.56-9.64C351.67,169.76,401.74,83,446.25,160.13Z"/><path class="cls-3" d="M583.1,363.06c-21.71-37.6,27.14-37.6,5.43,0,21.71-37.6,46.13,4.7,2.71,4.7,43.42,0,19,42.3-2.71,4.7,21.71,37.6-27.14,37.6-5.43,0-21.71,37.6-46.13-4.7-2.71-4.7C537,367.76,561.39,325.46,583.1,363.06Z"/><path class="cls-2" d="M583.1,363.06c-21.71-37.6,27.14-37.6,5.43,0,21.71-37.6,46.13,4.7,2.71,4.7,43.42,0,19,42.3-2.71,4.7,21.71,37.6-27.14,37.6-5.43,0-21.71,37.6-46.13-4.7-2.71-4.7C537,367.76,561.39,325.46,583.1,363.06Z"/><path class="cls-3" d="M579.13,495.41c-21.47-20.7,10.78-30,3.58-1,7.2-28.94,31.35-5.65,2.69,2.59,28.66-8.24,20.56,24.32-.9,3.62,21.46,20.7-10.78,30-3.59,1-7.19,28.94-31.34,5.65-2.68-2.59C549.57,507.27,557.66,474.71,579.13,495.41Z"/><path class="cls-2" d="M579.13,495.41c-21.47-20.7,10.78-30,3.58-1,7.2-28.94,31.35-5.65,2.69,2.59,28.66-8.24,20.56,24.32-.9,3.62,21.46,20.7-10.78,30-3.59,1-7.19,28.94-31.34,5.65-2.68-2.59C549.57,507.27,557.66,474.71,579.13,495.41Z"/><path class="cls-3" d="M124.1,60.3c-21.71-37.6,27.14-37.6,5.43,0,21.71-37.6,46.13,4.7,2.71,4.7,43.42,0,19,42.3-2.71,4.7,21.71,37.6-27.14,37.6-5.43,0C102.39,107.3,78,65,121.39,65,78,65,102.39,22.7,124.1,60.3Z"/><path class="cls-2" d="M124.1,60.3c-21.71-37.6,27.14-37.6,5.43,0,21.71-37.6,46.13,4.7,2.71,4.7,43.42,0,19,42.3-2.71,4.7,21.71,37.6-27.14,37.6-5.43,0C102.39,107.3,78,65,121.39,65,78,65,102.39,22.7,124.1,60.3Z"/><path class="cls-1" d="M483.87,266.59c-73.79-127.81,71.68-127.81-2.11,0,73.79-127.81,146.52-1.83-1.05-1.83,147.57,0,74.84,126,1.05-1.82,73.79,127.8-71.68,127.8,2.11,0-73.79,127.8-146.52,1.82,1.05,1.82C337.35,264.76,410.08,138.78,483.87,266.59Z"/><path class="cls-2" d="M483.87,266.59c-73.79-127.81,71.68-127.81-2.11,0,73.79-127.81,146.52-1.83-1.05-1.83,147.57,0,74.84,126,1.05-1.82,73.79,127.8-71.68,127.8,2.11,0-73.79,127.8-146.52,1.82,1.05,1.82C337.35,264.76,410.08,138.78,483.87,266.59Z"/><path class="cls-1" d="M172.81,123.21c-69.69-31.14-8.76-75.28-.88.64-7.88-75.92,60.81-45.23-1-.45,61.81-44.78,69.57,30-.11-1.08,69.68,31.13,8.76,75.27.88-.64,7.88,75.91-60.81,45.22,1,.44C110.89,166.9,103.12,92.07,172.81,123.21Z"/><path class="cls-2" d="M172.81,123.21c-69.69-31.14-8.76-75.28-.88.64-7.88-75.92,60.81-45.23-1-.45,61.81-44.78,69.57,30-.11-1.08,69.68,31.13,8.76,75.27.88-.64,7.88,75.91-60.81,45.22,1,.44C110.89,166.9,103.12,92.07,172.81,123.21Z"/><path class="cls-3" d="M258.42,75.24c-97-56,12.12-119,12.12-7,0-112,109.11-49,12.12,7,97-56,97,70,0,14,97,56-12.12,119-12.12,7,0,112-109.12,49-12.12-7C161.42,145.24,161.42,19.24,258.42,75.24Z"/><path class="cls-6" d="M258.42,75.24c-97-56,12.12-119,12.12-7,0-112,109.11-49,12.12,7,97-56,97,70,0,14,97,56-12.12,119-12.12,7,0,112-109.12,49-12.12-7C161.42,145.24,161.42,19.24,258.42,75.24Z"/><path class="cls-3" d="M266,72.6c-44.51-77.09,55.63-77.09,11.12,0,44.51-77.09,94.59,9.64,5.57,9.64,89,0,38.94,86.73-5.57,9.63,44.51,77.1-55.63,77.1-11.12,0-44.51,77.1-94.59-9.63-5.57-9.63C171.39,82.24,221.47-4.49,266,72.6Z"/><path class="cls-2" d="M266,72.6c-44.51-77.09,55.63-77.09,11.12,0,44.51-77.09,94.59,9.64,5.57,9.64,89,0,38.94,86.73-5.57,9.63,44.51,77.1-55.63,77.1-11.12,0-44.51,77.1-94.59-9.63-5.57-9.63C171.39,82.24,221.47-4.49,266,72.6Z"/><circle class="cls-7" cx="483.18" cy="265" r="14"/></g></svg>