<svg xmlns="http://www.w3.org/2000/svg" viewBox="0 0 629 525"><defs><style>.cls-1,.cls-7{fill:#4e687c;}.cls-2,.cls-6{fill:none;}.cls-2,.cls-6,.cls-7{stroke:#fff;stroke-miterlimit:10;}.cls-2,.cls-7{stroke-width:5px;}.cls-3{fill:#f8cc54;}.cls-4{fill:#607348;}.cls-5{fill:#fff;}</style></defs><title>flowers-one</title><g id="Layer_1" data-name="Layer 1"><path class="cls-1" d="M178.26,74.25c77.28-34.36,9.86-83.39,1,.71,8.88-84.1-67.3-50.23,1.1-.49-68.4-49.74-77.15,33.16.13-1.2-77.28,34.36-9.86,83.4-1-.71-8.88,84.11,67.29,50.24-1.1.49C246.78,122.8,255.54,39.89,178.26,74.25Z"/><path class="cls-2" d="M178.26,74.25c77.28-34.36,9.86-83.39,1,.71,8.88-84.1-67.3-50.23,1.1-.49-68.4-49.74-77.15,33.16.13-1.2-77.28,34.36-9.86,83.4-1-.71-8.88,84.11,67.29,50.24-1.1.49C246.78,122.8,255.54,39.89,178.26,74.25Z"/><path class="cls-3" d="M261.82,48.53c43.67-43.78-23.55-61.7-7.47-2-16.08-59.71-65.21-10.45-5.46,5.47-59.75-15.92-41.65,51.25,2,7.46-43.66,43.79,23.56,61.7,7.47,2,16.09,59.71,65.21,10.46,5.46-5.47C323.58,71.92,305.49,4.75,261.82,48.53Z"/><path class="cls-2" d="M261.82,48.53c43.67-43.78-23.55-61.7-7.47-2-16.08-59.71-65.21-10.45-5.46,5.47-59.75-15.92-41.65,51.25,2,7.46-43.66,43.79,23.56,61.7,7.47,2,16.09,59.71,65.21,10.46,5.46-5.47C323.58,71.92,305.49,4.75,261.82,48.53Z"/><path class="cls-4" d="M87.83,106.8c58.66-101.6-73.32-101.6-14.66,0C14.51,5.2-51.48,119.5,65.84,119.5c-117.32,0-51.33,114.3,7.33,12.7-58.66,101.6,73.32,101.6,14.66,0,58.66,101.6,124.65-12.7,7.33-12.7C212.48,119.5,146.49,5.2,87.83,106.8Z"/><circle class="cls-5" cx="80" cy="120" r="14"/><path class="cls-4" d="M255.43,117.3c55.48-65.59-39.63-82.74-10.56-1.9-29.07-80.84-91.48-7.05-6.94,8.19-84.54-15.24-51.84,75.7,3.64,10.11-55.48,65.59,39.63,82.74,10.56,1.9,29.07,80.84,91.48,7.05,6.94-8.19C343.61,142.65,310.91,51.71,255.43,117.3Z"/><circle class="cls-5" cx="248" cy="127" r="14"/><path class="cls-4" d="M452.43,57.3c55.48-65.59-39.63-82.74-10.56-1.9-29.07-80.84-91.48-7-6.94,8.19-84.54-15.24-51.84,75.7,3.64,10.11-55.48,65.59,39.63,82.74,10.56,1.9,29.07,80.84,91.48,7.05,6.94-8.19C540.61,82.65,507.91-8.29,452.43,57.3Z"/><circle class="cls-5" cx="445" cy="67" r="14"/><path class="cls-4" d="M61.65,288.85c49.21-13.18,8.69-53.71-4.5-4.5C70.34,235.14,15,250,51,286c-36-36-50.86,19.33-1.65,6.15-49.21,13.18-8.69,53.71,4.5,4.5C40.66,345.86,96,331,60,295,96,331,110.86,275.67,61.65,288.85Z"/><path class="cls-4" d="M105.93,353c75.4-20.2,13.3-82.3-6.9-6.9,20.2-75.4-64.63-52.67-9.43,2.53-55.2-55.2-77.93,29.63-2.53,9.43-75.4,20.2-13.3,82.3,6.9,6.9-20.2,75.4,64.63,52.67,9.43-2.53C158.6,417.6,181.33,332.77,105.93,353Z"/><path class="cls-4" d="M55.45,435.12c15.6-27-19.5-27-3.9,0-15.6-27-33.15,3.38-1.95,3.38-31.2,0-13.65,30.4,1.95,3.38-15.6,27,19.5,27,3.9,0,15.6,27,33.15-3.38,1.95-3.38C88.6,438.5,71.05,408.1,55.45,435.12Z"/><path class="cls-4" d="M540,67.52c27.6-47.8-34.5-47.8-6.9,0-27.6-47.8-58.65,6-3.45,6-55.2,0-24.15,53.78,3.45,6-27.6,47.8,34.5,47.8,6.9,0,27.6,47.8,58.65-6,3.45-6C598.6,73.5,567.55,19.72,540,67.52Z"/><path class="cls-4" d="M603.45,62.12c15.6-27-19.5-27-3.9,0-15.6-27-33.15,3.38-1.95,3.38-31.2,0-13.65,30.4,1.95,3.38-15.6,27,19.5,27,3.9,0,15.6,27,33.15-3.38,1.95-3.38C636.6,65.5,619.05,35.1,603.45,62.12Z"/><path class="cls-3" d="M76.93,203.13c44.51-77.1-55.64-77.1-11.13,0-44.51-77.1-94.58,9.63-5.56,9.63-89,0-38.95,86.73,5.56,9.64-44.51,77.09,55.64,77.09,11.13,0,44.51,77.09,94.58-9.64,5.56-9.64C171.51,212.76,121.44,126,76.93,203.13Z"/><path class="cls-2" d="M76.93,203.13c44.51-77.1-55.64-77.1-11.13,0-44.51-77.1-94.58,9.63-5.56,9.63-89,0-38.95,86.73,5.56,9.64-44.51,77.09,55.64,77.09,11.13,0,44.51,77.09,94.58-9.64,5.56-9.64C171.51,212.76,121.44,126,76.93,203.13Z"/><path class="cls-3" d="M182.93,160.13c44.51-77.1-55.64-77.1-11.13,0-44.51-77.1-94.58,9.63-5.56,9.63-89,0-38.95,86.73,5.56,9.64-44.51,77.09,55.64,77.09,11.13,0,44.51,77.09,94.58-9.64,5.56-9.64C277.51,169.76,227.44,83,182.93,160.13Z"/><path class="cls-2" d="M182.93,160.13c44.51-77.1-55.64-77.1-11.13,0-44.51-77.1-94.58,9.63-5.56,9.63-89,0-38.95,86.73,5.56,9.64-44.51,77.09,55.64,77.09,11.13,0,44.51,77.09,94.58-9.64,5.56-9.64C277.51,169.76,227.44,83,182.93,160.13Z"/><path class="cls-3" d="M46.08,363.06c21.71-37.6-27.14-37.6-5.43,0-21.71-37.6-46.13,4.7-2.71,4.7-43.42,0-19,42.3,2.71,4.7-21.71,37.6,27.14,37.6,5.43,0,21.71,37.6,46.13-4.7,2.71-4.7C92.21,367.76,67.79,325.46,46.08,363.06Z"/><path class="cls-2" d="M46.08,363.06c21.71-37.6-27.14-37.6-5.43,0-21.71-37.6-46.13,4.7-2.71,4.7-43.42,0-19,42.3,2.71,4.7-21.71,37.6,27.14,37.6,5.43,0,21.71,37.6,46.13-4.7,2.71-4.7C92.21,367.76,67.79,325.46,46.08,363.06Z"/><path class="cls-3" d="M50.05,495.41c21.46-20.7-10.78-30-3.59-1-7.19-28.94-31.34-5.65-2.68,2.59-28.66-8.24-20.57,24.32.9,3.62-21.47,20.7,10.78,30,3.58,1,7.2,28.94,31.35,5.65,2.69-2.59C79.61,507.27,71.51,474.71,50.05,495.41Z"/><path class="cls-2" d="M50.05,495.41c21.46-20.7-10.78-30-3.59-1-7.19-28.94-31.34-5.65-2.68,2.59-28.66-8.24-20.57,24.32.9,3.62-21.47,20.7,10.78,30,3.58,1,7.2,28.94,31.35,5.65,2.69-2.59C79.61,507.27,71.51,474.71,50.05,495.41Z"/><path class="cls-3" d="M505.08,60.3c21.71-37.6-27.14-37.6-5.43,0-21.71-37.6-46.13,4.7-2.71,4.7-43.42,0-19,42.3,2.71,4.7-21.71,37.6,27.14,37.6,5.43,0,21.71,37.6,46.13-4.7,2.71-4.7C551.21,65,526.79,22.7,505.08,60.3Z"/><path class="cls-2" d="M505.08,60.3c21.71-37.6-27.14-37.6-5.43,0-21.71-37.6-46.13,4.7-2.71,4.7-43.42,0-19,42.3,2.71,4.7-21.71,37.6,27.14,37.6,5.43,0,21.71,37.6,46.13-4.7,2.71-4.7C551.21,65,526.79,22.7,505.08,60.3Z"/><path class="cls-1" d="M145.31,266.59c73.79-127.81-71.68-127.81,2.11,0C73.63,138.78.9,264.76,148.47,264.76c-147.57,0-74.84,126-1.05-1.82-73.79,127.8,71.68,127.8-2.11,0,73.79,127.8,146.52,1.82-1.05,1.82C291.83,264.76,219.1,138.78,145.31,266.59Z"/><path class="cls-2" d="M145.31,266.59c73.79-127.81-71.68-127.81,2.11,0C73.63,138.78.9,264.76,148.47,264.76c-147.57,0-74.84,126-1.05-1.82-73.79,127.8,71.68,127.8-2.11,0,73.79,127.8,146.52,1.82-1.05,1.82C291.83,264.76,219.1,138.78,145.31,266.59Z"/><path class="cls-1" d="M456.37,123.21c69.68-31.14,8.76-75.28.88.64,7.88-75.92-60.81-45.23,1-.45-61.81-44.78-69.58,30,.11-1.08-69.69,31.13-8.76,75.27-.88-.64-7.88,75.91,60.81,45.22-1,.44C518.29,166.9,526.05,92.07,456.37,123.21Z"/><path class="cls-2" d="M456.37,123.21c69.68-31.14,8.76-75.28.88.64,7.88-75.92-60.81-45.23,1-.45-61.81-44.78-69.58,30,.11-1.08-69.69,31.13-8.76,75.27-.88-.64-7.88,75.91,60.81,45.22-1,.44C518.29,166.9,526.05,92.07,456.37,123.21Z"/><path class="cls-3" d="M370.76,75.24c97-56-12.12-119-12.12-7,0-112-109.12-49-12.13,7-97-56-97,70,0,14-97,56,12.13,119,12.13,7,0,112,109.11,49,12.12-7C467.75,145.24,467.75,19.24,370.76,75.24Z"/><path class="cls-6" d="M370.76,75.24c97-56-12.12-119-12.12-7,0-112-109.12-49-12.13,7-97-56-97,70,0,14-97,56,12.13,119,12.13,7,0,112,109.11,49,12.12-7C467.75,145.24,467.75,19.24,370.76,75.24Z"/><path class="cls-3" d="M363.2,72.6c44.51-77.09-55.64-77.09-11.13,0-44.51-77.09-94.58,9.64-5.56,9.64-89,0-38.95,86.73,5.56,9.63-44.51,77.1,55.64,77.1,11.13,0,44.51,77.1,94.58-9.63,5.56-9.63C457.78,82.24,407.71-4.49,363.2,72.6Z"/><path class="cls-2" d="M363.2,72.6c44.51-77.09-55.64-77.09-11.13,0-44.51-77.09-94.58,9.64-5.56,9.64-89,0-38.95,86.73,5.56,9.63-44.51,77.1,55.64,77.1,11.13,0,44.51,77.1,94.58-9.63,5.56-9.63C457.78,82.24,407.71-4.49,363.2,72.6Z"/><circle class="cls-7" cx="146" cy="265" r="14"/></g></svg>