<svg xmlns="http://www.w3.org/2000/svg" viewBox="0 0 1276.44 790.63"><defs><style>.cls-1{fill:#dae2ef;}.cls-2{fill:#c9d3e2;}.cls-3{fill:#f8cc54;}.cls-4{fill:#f9d375;}.cls-5{fill:#64724d;}.cls-6,.cls-7{fill:#4e687c;}.cls-7{stroke:#4e687c;stroke-linecap:round;stroke-linejoin:round;stroke-width:5px;}.cls-8{fill:none;stroke:#e2e2e2;stroke-miterlimit:10;stroke-width:14px;}.cls-9{fill:#e2e2e2;}.cls-10{fill:#d6d6d6;}.cls-11{fill:#f4b5b5;}.cls-12{fill:#fcc;}.cls-13{fill:#ad5757;}</style></defs><title>food-drinks</title><g id="Layer_6" data-name="Layer 6"><ellipse class="cls-1" cx="894.66" cy="553.72" rx="218.1" ry="51.21"/><ellipse class="cls-2" cx="887.79" cy="552.46" rx="121.42" ry="23.84"/><ellipse class="cls-3" cx="887.79" cy="552.46" rx="74.06" ry="14.54"/><path class="cls-4" d="M705,321.67C705,451.58,785.58,556.88,885,556.88s180.07-105.3,180.07-235.21Z"/><path class="cls-1" d="M705,321c0,37.37,80.62,67.66,180.08,67.66s180.07-30.29,180.07-67.66S979.43,277.25,880,277.25,705,283.68,705,321Z"/><path class="cls-5" d="M882.29,331.79c61.4,0,115.61,11.55,148.12,29.18C997.64,377.78,944.74,388.7,885,388.7c-61.41,0-115.62-11.55-148.12-29.18C769.68,342.71,822.58,331.79,882.29,331.79Z"/><path class="cls-3" d="M1061.44,369.73a34,34,0,0,1,5.6-19.59,39.61,39.61,0,0,1,16.12-14.2,34.57,34.57,0,0,1,11-3.17,29,29,0,0,1,12.11,1.21,28.53,28.53,0,0,1,10.8,6.5,32.88,32.88,0,0,1,4.08,4.71,39.14,39.14,0,0,1,3.15,5.18,50.86,50.86,0,0,1,4,10.92,74.48,74.48,0,0,1,1.81,11c.3,3.64.38,7.25.32,10.83,0,1.78-.1,3.56-.22,5.33l-.08,1.33-.11,1.41c-.08.94-.16,1.88-.27,2.82a89,89,0,0,1-2.17,11c-.51,1.78-1,3.59-1.67,5.32L1125,413l-1,2.56c-.68,1.72-1.47,3.37-2.23,5s-1.61,3.28-2.5,4.85c-1.71,3.21-3.64,6.24-5.62,9.24a166.71,166.71,0,0,1-28,31.27,250.4,250.4,0,0,1-33,24.33,293.5,293.5,0,0,1-35.82,18.85c-6.15,2.74-12.41,5.21-18.74,7.48a177.21,177.21,0,0,1-19.35,5.8l32.16-23.53c10.58-7.8,21-15.65,31.08-23.75,5.08-4,10-8.15,14.88-12.29s9.56-8.46,14.16-12.81a208.43,208.43,0,0,0,24.79-27.73,116.61,116.61,0,0,0,9.4-15.23,76.14,76.14,0,0,0,6-16.2c.17-.69.27-1.39.44-2.09l.23-1,.17-1.14c.24-1.52.43-3,.6-4.55a88.51,88.51,0,0,0,.55-9,47.89,47.89,0,0,0-2.29-16.69c-1.75-5-4.71-9-9-11.22a19.13,19.13,0,0,0-7.33-1.92,25.66,25.66,0,0,0-8.3.93A35.69,35.69,0,0,0,1061.44,369.73Z"/><ellipse class="cls-1" cx="343.99" cy="506.52" rx="223.59" ry="38.05"/><ellipse class="cls-2" cx="351.03" cy="505.59" rx="124.48" ry="17.71"/><polygon class="cls-6" points="257.51 506.71 257.51 406.08 457.79 423.02 457.79 519.67 257.51 506.71"/><polygon class="cls-3" points="255.95 450.92 459.35 464.07 459.35 422.4 255.95 405.19 255.95 450.92"/><polygon class="cls-3" points="255.95 507.4 459.35 520.55 459.35 493.63 255.95 476.42 255.95 507.4"/><polygon class="cls-7" points="325.03 380.5 255.95 405.19 459.35 422.39 325.03 380.5"/><line class="cls-8" x1="445.34" y1="424.36" x2="445.34" y2="579.36"/><path class="cls-9" d="M464.64,260.85H261.23c0,23.49,184.13,174.74,184.13,174.74S629.49,284.34,629.49,260.85Z"/><path class="cls-4" d="M538.18,356.25l-186.39-.55h0c46.53,41.25,93.57,79.89,93.57,79.89s46.48-38.18,92.73-79.15A1.87,1.87,0,0,1,538.18,356.25Z"/><ellipse class="cls-10" cx="445.36" cy="261.32" rx="184.13" ry="37.11"/><ellipse class="cls-10" cx="445.36" cy="584.39" rx="53.25" ry="10.73"/><ellipse class="cls-3" cx="445.36" cy="352.45" rx="94.88" ry="19.12"/><ellipse class="cls-1" cx="691.1" cy="600.29" rx="204.93" ry="38.05"/><ellipse class="cls-2" cx="697.56" cy="599.35" rx="114.09" ry="17.71"/><ellipse class="cls-11" cx="697.56" cy="599.35" rx="69.58" ry="10.8"/><path class="cls-12" d="M869.33,427.9c0,96.51-75.75,174.74-169.19,174.74S531,524.41,531,427.9Z"/><ellipse class="cls-1" cx="700.14" cy="427.43" rx="169.19" ry="50.26"/><path class="cls-13" d="M702.72,435.42c-57.69,0-108.63,8.58-139.17,21.68,30.79,12.48,80.49,20.59,136.59,20.59,57.69,0,108.63-8.58,139.17-21.67C808.53,443.53,758.82,435.42,702.72,435.42Z"/><path class="cls-3" d="M534.39,463.6a23.72,23.72,0,0,0-9.63-12.45A32.72,32.72,0,0,0,518,447.6a33.72,33.72,0,0,0-7.25-2,26.83,26.83,0,0,0-13.76,1.1,15.15,15.15,0,0,0-8.43,7.63,26.15,26.15,0,0,0-2.19,12.32,49.73,49.73,0,0,0,.69,7.07c.08.59.22,1.2.33,1.8.06.3.11.61.17.89l.22.77c.25,1,.61,2.06.95,3.08a51.65,51.65,0,0,0,6.59,11.91c1.42,1.91,3,3.8,4.55,5.66s3.31,3.68,5.13,5.44a205.22,205.22,0,0,0,24,20c8.61,6.26,17.59,12.29,26.78,18.14s18.53,11.69,28,17.53,19,11.72,28.47,18.06a152.37,152.37,0,0,1-16.84-3c-5.54-1.28-11-2.73-16.46-4.4a260.51,260.51,0,0,1-31.91-12.07c-2.6-1.18-5.16-2.44-7.73-3.71s-5.12-2.58-7.63-4-5-2.81-7.52-4.27-4.95-3-7.37-4.62a151.26,151.26,0,0,1-27.37-22.59,90.7,90.7,0,0,1-11.36-14.79,74.92,74.92,0,0,1-4.48-8.64,59.22,59.22,0,0,1-3.1-9.55,50.61,50.61,0,0,1-.86-5.07l-.14-1.28-.09-1.18c-.06-.78-.14-1.55-.16-2.34a67.28,67.28,0,0,1,.14-9.61,46.21,46.21,0,0,1,2-9.9,34.32,34.32,0,0,1,4.69-9.6,28.27,28.27,0,0,1,3.63-4.19,27.1,27.1,0,0,1,4.37-3.42,27.79,27.79,0,0,1,10-3.85,35.53,35.53,0,0,1,19.24,2.08,42.61,42.61,0,0,1,8.18,4.34,37.86,37.86,0,0,1,6.8,6.07,27.94,27.94,0,0,1,4.72,7.62A20.09,20.09,0,0,1,534.39,463.6Z"/></g></svg>