<svg xmlns="http://www.w3.org/2000/svg" viewBox="0 0 1276.44 790.63"><defs><style>.cls-1{fill:#f8d0c4;}.cls-2{fill:#eaba50;}.cls-3{fill:#fff;}.cls-4{fill:#49494a;}.cls-5{fill:none;stroke:#f8d0c4;stroke-miterlimit:10;stroke-width:31px;}.cls-6{fill:#607348;}.cls-7{fill:#56663e;}</style></defs><title>wear copy 5</title><g id="Layer_6" data-name="Layer 6"><path class="cls-1" d="M687.14,726.09H669.67c-5,0-9.11-5-9.11-11.08L653,451c0-6.09,11.69-11.08,16.7-11.08h17.47c5,0,14.42,5,14.42,11.08L696.24,715C696.24,721.1,692.15,726.09,687.14,726.09Z"/><path class="cls-1" d="M590,726.09h17.46c5,0,9.11-5,9.11-11.08l7.59-264c0-6.09-11.69-11.08-16.7-11.08H590c-5,0-14.42,5-14.42,11.08L580.85,715C580.85,721.1,585,726.09,590,726.09Z"/><rect class="cls-1" x="626.41" y="209.86" width="28.85" height="54.66" rx="12"/><ellipse class="cls-2" cx="639.79" cy="181.1" rx="89.4" ry="110.81"/><rect class="cls-2" x="554.48" y="49.23" width="172.2" height="146.58" rx="73.29"/><rect class="cls-1" x="564.92" y="72.45" width="150.31" height="156.39" rx="75.16"/><path class="cls-3" d="M614.69,176.64h53.05a0,0,0,0,1,0,0v0a26.53,26.53,0,0,1-26.53,26.53h0a26.53,26.53,0,0,1-26.53-26.53v0A0,0,0,0,1,614.69,176.64Z"/><path class="cls-2" d="M640.27,94.46c0,16.15,32.84,40.24,65.44,40.24,13.33,0,19.39-4.36,19.39-20.5s-30.41-39.47-63-39.47S640.27,78.32,640.27,94.46Z"/><path class="cls-2" d="M640.64,94.46c0,16.15-32.84,40.24-65.44,40.24-13.33,0-19.39-4.36-19.39-20.5s30.42-39.47,63-39.47S640.64,78.32,640.64,94.46Z"/><rect class="cls-2" x="598.32" y="61.82" width="75.92" height="25.81" rx="12"/><path class="cls-4" d="M600.4,136h7.41a6.66,6.66,0,0,1,6.66,6.66v.75a6.66,6.66,0,0,1-6.66,6.66h-.75a6.66,6.66,0,0,1-6.66-6.66V136A0,0,0,0,1,600.4,136Z"/><path class="cls-4" d="M675.55,136h.75a6.66,6.66,0,0,1,6.66,6.66v.75a6.66,6.66,0,0,1-6.66,6.66h-7.41a0,0,0,0,1,0,0v-7.41a6.66,6.66,0,0,1,6.66-6.66Z" transform="translate(1351.85 286.1) rotate(-180)"/><path class="cls-5" d="M710.74,479c2.89,0,5.25-4.1,5.25-9.11V365c0-61.34-28.93-111.52-64.3-111.52H628.84c-35.36,0-64.3,50.18-64.3,111.52V469.87c0,5,2.37,9.11,5.25,9.11"/><path class="cls-1" d="M626.37,241.74h32a61.45,61.45,0,0,1,61.45,61.45v.8a77.43,77.43,0,0,1-77.43,77.43h0A77.43,77.43,0,0,1,564.92,304v-.8a61.45,61.45,0,0,1,61.45-61.45Z"/><rect class="cls-1" x="629.32" y="220.26" width="22.98" height="31.55"/><polygon class="cls-1" points="560.42 314.95 601.38 385.91 683.32 385.91 724.28 314.95 560.42 314.95"/><path class="cls-6" d="M687.31,382.14c1.06-8.95,54.43-71.17,39.1-94.73s-28.53-45.25-60.23-49l-.08.06v-.06l-.51.47-24,43.74-24-43.74-.51-.47v.06l-.08-.06c-31.7,3.77-44.91,25.45-60.24,49s38,85.78,39.11,94.73-10.57,28.75-22.2,59.86-19.55,133.39-19.55,133.39c0,5.66,48.3,11,80.36,11.78h0c2.18.07,4.56.1,7.09.1s4.92,0,7.1-.1h0c32.06-.8,80.36-6.12,80.36-11.78,0,0-7.93-102.28-19.55-133.39S686.26,391.1,687.31,382.14Z"/><path class="cls-7" d="M595.72,322.69q.78,6.45,1.31,12.93t1,13a212.32,212.32,0,0,1,.15,26.1c0,1.09-.22,2.19-.33,3.28a29.57,29.57,0,0,1-.53,3.31,33.11,33.11,0,0,1-.79,3.23c-.28,1.07-.64,2.1-1,3.15-1.34,4.17-2.89,8.24-4.47,12.29-3.19,8.07-6.53,16-9.58,24.12-1.52,4-3,8.08-4.41,12.16-.72,2-1.36,4.09-2,6.14l-.8,3.05a26.64,26.64,0,0,0-.71,3.09c-1.61,8.33-1.65,17-1.29,25.55s1.36,17.21,2.18,25.84q.61,6.46,1,13a74.26,74.26,0,0,1-.32,13c.37-8.67-.92-17.25-2.12-25.81s-2.43-17.17-3.05-25.86a106.82,106.82,0,0,1,.83-26.23c.1-.55.15-1.1.29-1.64l.42-1.61.83-3.23c.68-2.07,1.31-4.16,2-6.21,1.37-4.13,2.87-8.21,4.39-12.28,3.12-8.12,6.49-16.12,9.75-24.11,1.64-4,3.23-8,4.61-12.06a63.28,63.28,0,0,0,1.8-6.11,30.67,30.67,0,0,0,.58-3.09c.13-1,.33-2.09.4-3.16a244.22,244.22,0,0,0,.71-25.84C596.47,340,596.08,331.35,595.72,322.69Z"/><path class="cls-7" d="M686.2,322.69c-.37,8.66-.76,17.31-.81,26a244.22,244.22,0,0,0,.71,25.84c.07,1.07.27,2.11.4,3.16a28.11,28.11,0,0,0,.59,3.09,60.49,60.49,0,0,0,1.79,6.11c1.38,4,3,8.06,4.61,12.06,3.26,8,6.63,16,9.75,24.11,1.52,4.07,3,8.15,4.39,12.28.71,2.05,1.34,4.14,2,6.21l.84,3.23.41,1.61c.14.54.19,1.09.29,1.64a106.82,106.82,0,0,1,.83,26.23c-.62,8.69-1.88,17.28-3,25.86s-2.49,17.14-2.12,25.81a75.25,75.25,0,0,1-.32-13c.24-4.34.58-8.67,1-13,.82-8.63,1.77-17.23,2.18-25.84s.32-17.22-1.29-25.55a24.73,24.73,0,0,0-.71-3.09l-.8-3.05c-.68-2.05-1.32-4.11-2-6.14-1.37-4.08-2.89-8.12-4.41-12.16C697.39,416,694.05,408,690.86,400c-1.58-4-3.13-8.12-4.47-12.29-.32-1.05-.68-2.08-.95-3.15a30.48,30.48,0,0,1-.8-3.23,29.57,29.57,0,0,1-.53-3.31c-.11-1.09-.29-2.19-.33-3.28a212.32,212.32,0,0,1,.15-26.1q.39-6.5,1-13T686.2,322.69Z"/><path class="cls-7" d="M644.77,570.8c-1.42-8.13-2.38-16.32-3.14-24.53s-1.24-16.44-1.52-24.68-.2-16.51.29-24.76,1.34-16.55,3.77-24.47a178.54,178.54,0,0,0-1.43,24.55c0,2,0,4.09,0,6.14s0,4.1.07,6.15l.1,6.15.19,6.15c.08,4.1.25,8.2.4,12.31l.45,12.31C644.28,554.33,644.59,562.55,644.77,570.8Z"/><path class="cls-7" d="M602.5,570.23a135.83,135.83,0,0,1-3.14-16.2c-.79-5.44-1.25-10.93-1.53-16.43a123.61,123.61,0,0,1,.3-16.55c.51-5.48,1.37-11.09,3.77-16.11a78.58,78.58,0,0,0-1.43,16.23c0,1.36,0,2.71,0,4.07s0,2.72.07,4.08l.1,4.07.19,4.08c.08,2.72.25,5.44.4,8.16l.45,8.17C602,559.26,602.31,564.72,602.5,570.23Z"/><path class="cls-7" d="M677.88,568.84c.18-5.5.5-11,.82-16.42l.45-8.17c.15-2.72.32-5.44.4-8.16l.19-4.08.1-4.08c.07-1.36,0-2.71.07-4.07s0-2.72,0-4.07a79.92,79.92,0,0,0-1.43-16.23c2.4,5,3.26,10.63,3.77,16.11a122,122,0,0,1,.29,16.55c-.28,5.5-.74,11-1.52,16.43A139.76,139.76,0,0,1,677.88,568.84Z"/></g></svg>