<svg xmlns="http://www.w3.org/2000/svg" viewBox="0 0 1276.44 790.63"><defs><style>.cls-1{fill:#3f3f3f;}.cls-2{fill:none;stroke:#586841;stroke-miterlimit:10;stroke-width:33px;}.cls-3{fill:#f8d0c4;}.cls-4{fill:#586841;}.cls-5{fill:#607348;}.cls-6{fill:#49494a;}.cls-7{fill:#fff;}</style></defs><title>wear copy 6</title><g id="Layer_1" data-name="Layer 1"><path class="cls-1" d="M688.38,742.63h-17.7c-5.08,0-9.23-5-9.23-11.23l-7.7-267.63c0-6.17,11.85-11.23,16.93-11.23h17.7c5.07,0,14.62,5.06,14.62,11.23L697.61,731.4C697.61,737.58,693.45,742.63,688.38,742.63Z"/><path class="cls-1" d="M589.89,742.63h17.69c5.08,0,9.24-5,9.24-11.23l7.69-267.63c0-6.17-11.85-11.23-16.93-11.23H589.89c-5.08,0-14.62,5.06-14.62,11.23l5.38,267.63C580.65,737.58,584.81,742.63,589.89,742.63Z"/><path class="cls-2" d="M629.17,228.79c-49.79,0-90.53,40.74-90.53,90.53v29c0,49.8,40.74,90.54,90.53,90.54"/><path class="cls-2" d="M653.4,228.79c49.8,0,90.54,40.74,90.54,90.53v29c0,49.8-40.74,90.54-90.54,90.54"/><rect class="cls-1" x="575.3" y="431.77" width="127.68" height="54.63" rx="12"/><rect class="cls-3" x="624.03" y="182.08" width="29.24" height="59.46" rx="12"/><path class="cls-4" d="M700.5,440.56H578.7c-4.57,0-8.31-4-8.31-9V256.85c0-24.16,18.33-43.93,40.74-43.93H624l14.88,24.66,14.8-24.66h14.36c22.41,0,40.74,19.77,40.74,43.93V431.6C708.81,436.53,705.07,440.56,700.5,440.56Z"/><polygon class="cls-5" points="638.94 237.6 617.54 218.49 624.5 212.44 638.94 237.6"/><polygon class="cls-5" points="638.95 237.51 662.48 216.98 653.87 212.27 638.95 237.51"/><rect class="cls-6" x="551.6" y="25.28" width="174.54" height="163.49" rx="74.29"/><rect class="cls-3" x="562.19" y="42.81" width="152.35" height="158.51" rx="76.18"/><path class="cls-7" d="M621,150.27H658.6a0,0,0,0,1,0,0v3.25a13.21,13.21,0,0,1-13.21,13.21H634.2A13.21,13.21,0,0,1,621,153.52v-3.25a0,0,0,0,1,0,0Z"/><path class="cls-6" d="M681.45,55.87c0,18.46-29.44,35.6-83.41,33.86-27.31-.88-49.88,2-49.88-16.5s39.73-46,67.05-46S681.45,37.4,681.45,55.87Z"/><path class="cls-6" d="M673,65.12c0,16.36,20.85,40.78,41.55,40.78,8.46,0,12.31-4.41,12.31-20.77s-19.31-40-40-40S673,48.76,673,65.12Z"/><circle class="cls-6" cx="603.23" cy="124.64" r="6.12"/><circle class="cls-6" cx="675.71" cy="124.64" r="6.12"/></g></svg>