<svg xmlns="http://www.w3.org/2000/svg" viewBox="0 0 1276.44 790.63"><defs><style>.cls-1{fill:#f8d0c4;}.cls-2{fill:#999;}.cls-3{fill:none;stroke:#e8e8e8;stroke-miterlimit:10;stroke-width:34px;}.cls-4{fill:#e8e8e8;}.cls-5{fill:#d8d8d8;}.cls-6{fill:#f7bd77;}.cls-7{fill:#fff;}.cls-8{fill:#49494a;}</style></defs><title>wear copy 7</title><g id="Layer_1" data-name="Layer 1"><rect class="cls-1" x="638.66" y="177.08" width="29.24" height="74.23" rx="12"/><path class="cls-2" d="M702.66,742.63H685c-5.08,0-9.23-5-9.23-11.23L668,463.77c0-6.17,11.85-11.23,16.93-11.23h17.7c5.08,0,14.62,5.06,14.62,11.23L711.89,731.4C711.89,737.58,707.74,742.63,702.66,742.63Z"/><path class="cls-2" d="M604.17,742.63h17.69c5.08,0,9.24-5,9.24-11.23l7.69-267.63c0-6.17-11.85-11.23-16.93-11.23H604.17c-5.08,0-14.62,5.06-14.62,11.23l5.38,267.63C594.93,737.58,599.09,742.63,604.17,742.63Z"/><path class="cls-3" d="M639.47,228.79c-46.76,0-85,40.74-85,90.53v29c0,49.8,38.26,90.54,85,90.54"/><path class="cls-3" d="M670,229.42c46.76,0,85.72,40.11,85.72,89.9v29c0,49.8-38.26,90.54-85,90.54"/><rect class="cls-2" x="589.58" y="431.77" width="127.68" height="54.63" rx="12"/><path class="cls-4" d="M714.78,468.77l-52.69-1.21-7.73-6.43-6.58,6.43L593,468.77c-4.57,0-8.31-4.53-8.31-10.07V262.29c0-27.15,18.33-49.37,40.74-49.37h12.9l16.93,31,14.2-29.9,12.46,1c22.41,0,41.19,20.21,41.19,47.36V458.7C723.09,464.24,719.35,468.77,714.78,468.77Z"/><path class="cls-5" d="M655.24,243.87s-14.3-20.45-16.56-21.14c-4.52-1.38-12.68-5.72-10.1-7.52,3.92-2.74,5.38-3.25,9.64-3.14S655.24,243.87,655.24,243.87Z"/><path class="cls-5" d="M655.2,243.87s13.78-20.77,16-21.46c4.52-1.37,13.2-5.4,10.62-7.2-3.93-2.74-9.46-3.28-13.73-3.18S655.2,243.87,655.2,243.87Z"/><rect class="cls-6" x="565.89" y="30.18" width="174.54" height="163.49" rx="74.29"/><rect class="cls-1" x="576.47" y="47.71" width="152.35" height="158.51" rx="76.18"/><path class="cls-7" d="M635.27,155.17h37.61a0,0,0,0,1,0,0v3.25a13.21,13.21,0,0,1-13.21,13.21H648.48a13.21,13.21,0,0,1-13.21-13.21v-3.25a0,0,0,0,1,0,0Z"/><path class="cls-6" d="M695.73,60.77c0,18.46-29.44,35.6-83.41,33.86-27.31-.88-49.88,2-49.88-16.5s39.73-46,67-46S695.73,42.3,695.73,60.77Z"/><path class="cls-6" d="M687.27,70c0,16.36,20.85,40.78,41.55,40.78,8.46,0,12.31-4.41,12.31-20.77s-19.31-40-40-40S687.27,53.66,687.27,70Z"/><circle class="cls-8" cx="617.51" cy="129.55" r="6.12"/><circle class="cls-8" cx="689.99" cy="129.55" r="6.12"/></g></svg>