<svg xmlns="http://www.w3.org/2000/svg" viewBox="0 0 1276.44 790.63"><defs><style>.cls-1{fill:#f8d0c4;}.cls-2{fill:#f9d375;}.cls-3{fill:#fff;}.cls-4{fill:#49494a;}.cls-10,.cls-12,.cls-5,.cls-9{fill:none;stroke-miterlimit:10;}.cls-5,.cls-9{stroke:#f8d0c4;}.cls-5{stroke-width:31px;}.cls-6{fill:#607348;}.cls-7{fill:#56663e;}.cls-8{fill:#f7bd77;}.cls-9{stroke-width:32px;}.cls-10{stroke:#4e687c;stroke-width:35px;}.cls-11{fill:#4e687c;}.cls-12{stroke:#3c5768;stroke-linecap:round;stroke-width:4px;}</style></defs><title>wear</title><g id="Layer_6" data-name="Layer 6"><path class="cls-1" d="M823,726.09H805.54c-5,0-9.11-5-9.11-11.08l-7.59-264c0-6.09,11.69-11.08,16.7-11.08H823c5,0,14.43,5,14.43,11.08L832.11,715C832.11,721.1,828,726.09,823,726.09Z"/><path class="cls-1" d="M725.83,726.09h17.46c5,0,9.11-5,9.11-11.08L760,451c0-6.09-11.69-11.08-16.7-11.08H725.83c-5,0-14.42,5-14.42,11.08L716.72,715C716.72,721.1,720.82,726.09,725.83,726.09Z"/><rect class="cls-1" x="762.28" y="209.86" width="28.85" height="54.66" rx="12"/><ellipse class="cls-2" cx="775.66" cy="181.1" rx="89.4" ry="110.81"/><rect class="cls-2" x="690.35" y="49.23" width="172.2" height="146.58" rx="73.29"/><rect class="cls-1" x="700.79" y="72.45" width="150.31" height="156.39" rx="75.16"/><path class="cls-3" d="M750.56,176.64h53.05a0,0,0,0,1,0,0v0a26.53,26.53,0,0,1-26.53,26.53h0a26.53,26.53,0,0,1-26.53-26.53v0a0,0,0,0,1,0,0Z"/><path class="cls-2" d="M776.14,94.46c0,16.15,32.84,40.24,65.44,40.24,13.33,0,19.39-4.36,19.39-20.5s-30.42-39.47-63-39.47S776.14,78.32,776.14,94.46Z"/><path class="cls-2" d="M776.51,94.46c0,16.15-32.84,40.24-65.44,40.24-13.33,0-19.39-4.36-19.39-20.5s30.42-39.47,63-39.47S776.51,78.32,776.51,94.46Z"/><rect class="cls-2" x="734.19" y="61.82" width="75.92" height="25.81" rx="12"/><path class="cls-4" d="M736.27,136h7.41a6.66,6.66,0,0,1,6.66,6.66v.75a6.66,6.66,0,0,1-6.66,6.66h-.75a6.66,6.66,0,0,1-6.66-6.66V136A0,0,0,0,1,736.27,136Z"/><path class="cls-4" d="M811.42,136h.75a6.66,6.66,0,0,1,6.66,6.66v.75a6.66,6.66,0,0,1-6.66,6.66h-7.41a0,0,0,0,1,0,0v-7.41A6.66,6.66,0,0,1,811.42,136Z" transform="translate(1623.58 286.1) rotate(-180)"/><path class="cls-5" d="M846.61,479c2.89,0,5.25-4.1,5.25-9.11V365c0-61.34-28.93-111.52-64.3-111.52H764.71c-35.36,0-64.3,50.18-64.3,111.52V469.87c0,5,2.36,9.11,5.25,9.11"/><path class="cls-1" d="M762.24,241.74h32a61.45,61.45,0,0,1,61.45,61.45v.8a77.43,77.43,0,0,1-77.43,77.43h0A77.43,77.43,0,0,1,700.79,304v-.8A61.45,61.45,0,0,1,762.24,241.74Z"/><rect class="cls-1" x="765.19" y="220.26" width="22.98" height="31.55"/><polygon class="cls-1" points="696.29 314.95 737.25 385.91 819.18 385.91 860.15 314.95 696.29 314.95"/><path class="cls-6" d="M823.18,382.14c1.06-8.95,54.43-71.17,39.1-94.73s-28.53-45.25-60.23-49l-.09.06v-.06l-.51.47-24,43.74-24-43.74-.52-.47v.06l-.08-.06c-31.7,3.77-44.91,25.45-60.24,49s38,85.78,39.1,94.73S721.12,410.89,709.49,442s-19.55,133.39-19.55,133.39c0,5.66,48.3,11,80.36,11.78h0c2.17.07,4.55.1,7.09.1s4.92,0,7.09-.1h.05c32.06-.8,80.35-6.12,80.35-11.78,0,0-7.92-102.28-19.55-133.39S822.12,391.1,823.18,382.14Z"/><path class="cls-7" d="M731.58,322.69q.78,6.45,1.32,12.93t1,13a212.32,212.32,0,0,1,.15,26.1c0,1.09-.22,2.19-.33,3.28a29.57,29.57,0,0,1-.53,3.31,30.48,30.48,0,0,1-.8,3.23c-.27,1.07-.63,2.1-1,3.15-1.34,4.17-2.89,8.24-4.47,12.29-3.19,8.07-6.53,16-9.58,24.12-1.52,4-3,8.08-4.42,12.16-.71,2-1.35,4.09-2,6.14l-.8,3.05a24.73,24.73,0,0,0-.71,3.09c-1.61,8.33-1.65,17-1.29,25.55s1.36,17.21,2.18,25.84c.4,4.31.74,8.64,1,13a75.25,75.25,0,0,1-.32,13c.37-8.67-.92-17.25-2.12-25.81s-2.43-17.17-3-25.86a106.33,106.33,0,0,1,.83-26.23c.1-.55.15-1.1.29-1.64l.41-1.61.84-3.23c.68-2.07,1.3-4.16,2-6.21,1.37-4.13,2.87-8.21,4.39-12.28,3.12-8.12,6.49-16.12,9.75-24.11,1.64-4,3.23-8,4.61-12.06a60.49,60.49,0,0,0,1.79-6.11,28.11,28.11,0,0,0,.59-3.09c.13-1,.33-2.09.4-3.16a246.92,246.92,0,0,0,.71-25.84C732.34,340,732,331.35,731.58,322.69Z"/><path class="cls-7" d="M822.06,322.69c-.36,8.66-.75,17.31-.8,26a244.22,244.22,0,0,0,.71,25.84c.07,1.07.27,2.11.4,3.16a30.67,30.67,0,0,0,.58,3.09,63.28,63.28,0,0,0,1.8,6.11c1.37,4,3,8.06,4.61,12.06,3.26,8,6.63,16,9.75,24.11,1.52,4.07,3,8.15,4.39,12.28.71,2.05,1.34,4.14,2,6.21l.83,3.23.42,1.61c.14.54.19,1.09.29,1.64a107.31,107.31,0,0,1,.83,26.23c-.62,8.69-1.88,17.28-3,25.86s-2.49,17.14-2.13,25.81a76.26,76.26,0,0,1-.32-13q.38-6.51,1-13c.82-8.63,1.76-17.23,2.17-25.84s.33-17.22-1.28-25.55a26.64,26.64,0,0,0-.71-3.09l-.8-3.05c-.69-2.05-1.32-4.11-2-6.14-1.37-4.08-2.89-8.12-4.42-12.16-3-8.08-6.38-16.05-9.58-24.12-1.57-4-3.12-8.12-4.46-12.29-.32-1.05-.68-2.08-1-3.15a33.11,33.11,0,0,1-.79-3.23A29.57,29.57,0,0,1,820,378c-.11-1.09-.29-2.19-.33-3.28a212.32,212.32,0,0,1,.15-26.1q.39-6.5,1-13T822.06,322.69Z"/><path class="cls-7" d="M780.64,570.8c-1.42-8.13-2.38-16.32-3.14-24.53s-1.24-16.44-1.52-24.68-.2-16.51.29-24.76,1.34-16.55,3.77-24.47a177,177,0,0,0-1.43,24.55c0,2,0,4.09,0,6.14s0,4.1.07,6.15l.1,6.15.19,6.15c.08,4.1.25,8.2.4,12.31l.44,12.31C780.14,554.33,780.46,562.55,780.64,570.8Z"/><path class="cls-7" d="M738.37,570.23a137.88,137.88,0,0,1-3.15-16.2c-.78-5.44-1.24-10.93-1.52-16.43a120.36,120.36,0,0,1,.3-16.55c.51-5.48,1.37-11.09,3.76-16.11a80,80,0,0,0-1.43,16.23c0,1.36,0,2.71,0,4.07s0,2.72.06,4.08l.11,4.07.18,4.08c.08,2.72.26,5.44.4,8.16l.45,8.17C737.87,559.26,738.18,564.72,738.37,570.23Z"/><path class="cls-7" d="M813.75,568.84c.18-5.5.49-11,.82-16.42l.45-8.17c.14-2.72.32-5.44.4-8.16l.19-4.08.1-4.08c.07-1.36,0-2.71.07-4.07s0-2.72,0-4.07a79.92,79.92,0,0,0-1.43-16.23c2.39,5,3.26,10.63,3.77,16.11a122,122,0,0,1,.29,16.55c-.28,5.5-.74,11-1.52,16.43A139.76,139.76,0,0,1,813.75,568.84Z"/><path class="cls-1" d="M576.78,726.09H559.32c-5,0-9.11-5-9.11-11.08l-7.59-264c0-6.09,11.69-11.08,16.7-11.08h17.46c5,0,14.43,5,14.43,11.08L585.89,715C585.89,721.1,581.79,726.09,576.78,726.09Z"/><path class="cls-1" d="M479.61,726.09h17.46c5,0,9.11-5,9.11-11.08l7.59-264c0-6.09-11.69-11.08-16.7-11.08H479.61c-5,0-14.43,5-14.43,11.08L470.5,715C470.5,721.1,474.6,726.09,479.61,726.09Z"/><rect class="cls-1" x="516.06" y="209.86" width="28.85" height="54.66" rx="12"/><ellipse class="cls-8" cx="529.44" cy="181.1" rx="89.4" ry="110.81"/><rect class="cls-8" x="444.13" y="49.23" width="172.2" height="146.58" rx="73.29"/><rect class="cls-1" x="454.57" y="72.45" width="150.31" height="156.39" rx="75.16"/><path class="cls-3" d="M507.94,177.12h45a0,0,0,0,1,0,0v0a22.5,22.5,0,0,1-22.5,22.5h0a22.5,22.5,0,0,1-22.5-22.5v0a0,0,0,0,1,0,0Z"/><path class="cls-8" d="M529.92,94.46c0,16.15,32.84,40.24,65.44,40.24,13.33,0,19.39-4.36,19.39-20.5s-30.42-39.47-63-39.47S529.92,78.32,529.92,94.46Z"/><path class="cls-8" d="M530.29,94.46c0,16.15-32.84,40.24-65.44,40.24-13.33,0-19.39-4.36-19.39-20.5s30.42-39.47,63-39.47S530.29,78.32,530.29,94.46Z"/><rect class="cls-8" x="487.97" y="61.82" width="75.92" height="25.81" rx="12"/><path class="cls-4" d="M490,136h7.41a6.66,6.66,0,0,1,6.66,6.66v.75a6.66,6.66,0,0,1-6.66,6.66h-.75a6.66,6.66,0,0,1-6.66-6.66V136a0,0,0,0,1,0,0Z"/><path class="cls-4" d="M565.2,136h.75a6.66,6.66,0,0,1,6.66,6.66v.75a6.66,6.66,0,0,1-6.66,6.66h-7.41a0,0,0,0,1,0,0v-7.41A6.66,6.66,0,0,1,565.2,136Z" transform="translate(1131.14 286.1) rotate(-180)"/><path class="cls-9" d="M600.39,479c2.89,0,5.25-4.1,5.25-9.11V365c0-61.34-28.93-111.52-64.3-111.52H518.49c-35.37,0-64.3,50.18-64.3,111.52V469.87c0,5,2.36,9.11,5.25,9.11"/><path class="cls-1" d="M534.09,325.11v-.88c-42.58,0-79.52,22.35-79.52-20.24v-.8A61.63,61.63,0,0,1,516,241.74h32a61.63,61.63,0,0,1,61.45,61.45v.8C609.44,346.58,576.68,325.11,534.09,325.11Z"/><rect class="cls-1" x="518.97" y="220.26" width="22.98" height="31.55"/><path class="cls-10" d="M498.65,259c-25.74,14.59-44.46,56.72-44.46,106.06"/><path class="cls-10" d="M605.64,365c0-50.86-19.9-94.06-46.86-107.33"/><path class="cls-11" d="M577,382.14c0-42.85,10.42-61.83,20.85-71.6,13.42-12.56,16.3,2.41,13.44-13.14-3.73-20.22-23.72-55.24-55.43-59l-.08.06v-.06l-.51.47s-1.74,23.39-24.48,23.39-23.56-23.39-23.56-23.39l-.51-.47v.06l-.08-.06c-31.71,3.77-32.8,29.39-48.13,52.95-7.66,11.79-10,9.36,1.7,19s25.29,27.45,25.29,71.79c0,9-10.57,28.75-22.19,59.86s-19.55,197.72-19.55,197.72c0,5.67,48.3,11,80.35,11.78h0c2.17.07,4.55.1,7.09.1s4.92,0,7.09-.1h.05c32-.8,80.35-6.11,80.35-11.78,0,0-7.92-166.61-19.55-197.72S577,391.16,577,382.14Z"/><path class="cls-12" d="M485.46,382.14s46.84,24,91.5,0"/></g></svg>