<svg xmlns="http://www.w3.org/2000/svg" viewBox="0 0 1276.44 790.63"><defs><style>.cls-1{fill:#3f3f3f;}.cls-2{fill:none;stroke:#f4f4f4;stroke-miterlimit:10;stroke-width:33px;}.cls-3{fill:#f8d0c4;}.cls-4{fill:#f4f4f4;}.cls-5{fill:#586841;}.cls-6{fill:#607348;}.cls-7{fill:#fff;}.cls-8{fill:#49494a;}</style></defs><title>wear copy 4</title><g id="Layer_1" data-name="Layer 1"><path class="cls-1" d="M690.24,742.63h-17.7c-5.07,0-9.23-5-9.23-11.23l-7.69-267.63c0-6.17,11.85-11.23,16.92-11.23h17.7c5.08,0,14.62,5.06,14.62,11.23L699.48,731.4C699.48,737.58,695.32,742.63,690.24,742.63Z"/><path class="cls-1" d="M591.75,742.63h17.7c5.08,0,9.23-5,9.23-11.23l7.7-267.63c0-6.17-11.85-11.23-16.93-11.23h-17.7c-5.08,0-14.62,5.06-14.62,11.23l5.39,267.63C582.52,737.58,586.67,742.63,591.75,742.63Z"/><path class="cls-2" d="M631,228.79c-49.8,0-90.54,40.74-90.54,90.53v29c0,49.8,40.74,90.54,90.54,90.54"/><path class="cls-2" d="M655.27,228.79c49.79,0,90.53,40.74,90.53,90.53v29c0,49.8-40.74,90.54-90.53,90.54"/><rect class="cls-1" x="577.17" y="431.77" width="127.68" height="54.63" rx="12"/><rect class="cls-3" x="626.38" y="177.08" width="29.24" height="55.4" rx="12"/><path class="cls-4" d="M702.37,440.56H580.56c-4.57,0-8.3-4-8.3-9V256.85c0-24.16,18.33-43.93,40.74-43.93h12.9l14.87,8.21,14.8-8.21h14.36c22.41,0,40.74,19.77,40.74,43.93V431.6C710.67,436.53,706.94,440.56,702.37,440.56Z"/><polygon class="cls-5" points="637.15 230.94 631.76 382.35 641.25 423.74 649.46 381.58 643.3 230.17 637.15 230.94"/><rect class="cls-6" x="630.99" y="217.86" width="19.24" height="14.62" rx="7.31"/><polygon class="cls-7" points="641 217.86 627.84 236.38 624.84 209.4 641 217.86"/><polygon class="cls-7" points="641 217.86 654.15 236.38 657.15 209.4 641 217.86"/><rect class="cls-1" x="553.47" y="20.28" width="174.54" height="163.49" rx="74.29"/><rect class="cls-3" x="564.05" y="37.81" width="152.35" height="158.51" rx="76.18"/><path class="cls-7" d="M622.85,145.27h37.61a0,0,0,0,1,0,0v3.25a13.21,13.21,0,0,1-13.21,13.21H636.06a13.21,13.21,0,0,1-13.21-13.21v-3.25A0,0,0,0,1,622.85,145.27Z"/><path class="cls-1" d="M683.32,50.87c0,18.46-29.44,35.6-83.41,33.86-27.31-.88-49.89,2-49.89-16.5s39.74-46,67.06-46S683.32,32.4,683.32,50.87Z"/><path class="cls-1" d="M674.85,60.12c0,16.36,20.85,40.78,41.55,40.78,8.47,0,12.31-4.41,12.31-20.77s-19.31-40-40-40S674.85,43.76,674.85,60.12Z"/><circle class="cls-8" cx="605.09" cy="119.64" r="6.12"/><circle class="cls-8" cx="677.57" cy="119.64" r="6.12"/></g></svg>