<svg xmlns="http://www.w3.org/2000/svg" viewBox="0 0 433 731"><defs><style>.cls-1{fill:#3f3f3f;}.cls-10,.cls-2{fill:none;stroke-miterlimit:10;}.cls-2{stroke:#49494a;stroke-width:43px;}.cls-3{fill:#f8d0c4;}.cls-4{fill:#f4f4f4;}.cls-5{fill:#586841;}.cls-6{fill:#607348;}.cls-7{fill:#fff;}.cls-8{fill:#49494a;}.cls-9{fill:#30120b;}.cls-10{stroke:#f8d0c4;stroke-width:33px;}.cls-11{fill:#efefef;}</style></defs><title>wedding-ppl</title><g id="Layer_1" data-name="Layer 1"><path class="cls-1" d="M175.84,731H158.37c-5,0-9.11-5-9.11-11.08l-7.59-264c0-6.09,11.69-11.07,16.7-11.07h17.47c5,0,14.42,5,14.42,11.07l-5.31,264C185,726,180.85,731,175.84,731Z"/><path class="cls-1" d="M78.66,731H96.12c5,0,9.11-5,9.11-11.08l7.59-264c0-6.09-11.69-11.07-16.7-11.07H78.66c-5,0-14.42,5-14.42,11.07l5.31,264C69.55,726,73.65,731,78.66,731Z"/><path class="cls-2" d="M338.5,322.5c4-46-94-80-149-91l-75-6.48c-49.12,0-89.32,40.19-89.32,89.32V343c0,49.12,40.2,89.32,89.32,89.32"/><rect class="cls-1" x="65.76" y="424.3" width="113.12" height="53.9" rx="12"/><rect class="cls-3" x="112.82" y="173.02" width="28.85" height="54.66" rx="12"/><path class="cls-4" d="M192.81,433H63.21a8.86,8.86,0,0,1-8.84-8.83V251.72a43.48,43.48,0,0,1,43.35-43.35h13.72l15.83,8.1,15.75-8.1H158.3a43.48,43.48,0,0,1,43.35,43.35V424.14A8.86,8.86,0,0,1,192.81,433Z"/><polygon class="cls-5" points="123.45 226.16 118.14 295.24 128.77 373.44 135.6 294.48 129.53 225.4 123.45 226.16"/><rect class="cls-6" x="117.38" y="213.25" width="18.98" height="14.42" rx="7.21"/><polygon class="cls-7" points="127.25 213.25 114.27 231.52 111.31 204.9 127.25 213.25"/><polygon class="cls-7" points="127.25 213.25 140.23 231.52 143.19 204.9 127.25 213.25"/><path class="cls-8" d="M194.81,454.66h-57.5l-8.3-8.35-9.35,8.35H61.2a9.13,9.13,0,0,1-9.11-9.11v-196A44.82,44.82,0,0,1,96.78,204.9h14.48l16,150.31,16-150.31h16a44.82,44.82,0,0,1,44.68,44.69v196A9.13,9.13,0,0,1,194.81,454.66Z"/><path class="cls-1" d="M111.31,204.9s-14.43-2.28-16.71,0,32.65,133.61,32.65,160.18C127.25,365.08,126.49,242.1,111.31,204.9Z"/><path class="cls-1" d="M143.19,204.9s14.32-2.28,16.6,0-32.65,133.61-32.65,160.18C127.14,365.08,128,242.1,143.19,204.9Z"/><rect class="cls-9" x="40.89" y="12.39" width="172.2" height="146.58" rx="73.29"/><rect class="cls-3" x="51.33" y="35.61" width="150.31" height="156.39" rx="75.16"/><path class="cls-7" d="M93.83,136.14h67.6a3,3,0,0,1,3,3v0A30.82,30.82,0,0,1,133.62,170h-12a30.82,30.82,0,0,1-30.82-30.82v0a3,3,0,0,1,3-3Z"/><path class="cls-8" d="M66.18,97.3H120a4.22,4.22,0,0,1,4.22,4.22v0a16.2,16.2,0,0,1-16.2,16.2H78.16A16.2,16.2,0,0,1,62,101.52v0a4.22,4.22,0,0,1,4.22-4.22Z"/><path class="cls-8" d="M133.74,97.3h50a4.22,4.22,0,0,1,4.22,4.22v0a16.2,16.2,0,0,1-16.2,16.2H145.73a16.2,16.2,0,0,1-16.2-16.2v0a4.22,4.22,0,0,1,4.22-4.22Z"/><path class="cls-9" d="M169,52.31c0,16.14-27.33,31.12-77.43,29.61-25.36-.77-46.31,1.71-46.31-14.43s36.88-40.23,62.25-40.23S169,36.17,169,52.31Z"/><path class="cls-9" d="M160.65,57.62c0,16.15,20.57,40.24,41,40.24,8.35,0,12.14-4.36,12.14-20.5s-19-39.48-39.47-39.48S160.65,41.48,160.65,57.62Z"/><rect class="cls-8" x="49.05" y="100.14" width="154.11" height="4.55" rx="2.28"/><rect class="cls-3" x="274.51" y="247.77" width="28.85" height="54.66" rx="12"/><rect class="cls-9" x="202.57" y="87.15" width="172.2" height="146.58" rx="73.29"/><rect class="cls-3" x="213.01" y="110.36" width="150.31" height="156.39" rx="75.16"/><path class="cls-7" d="M255.51,210.89h67.6a3,3,0,0,1,3,3v0a30.82,30.82,0,0,1-30.82,30.82h-12a30.82,30.82,0,0,1-30.82-30.82v0A3,3,0,0,1,255.51,210.89Z"/><path class="cls-9" d="M288.36,132.38c0,16.14,32.84,40.23,65.45,40.23,13.33,0,19.39-4.35,19.39-20.49s-30.42-39.48-63-39.48S288.36,116.24,288.36,132.38Z"/><path class="cls-9" d="M288.74,132.38c0,16.14-32.85,40.23-65.45,40.23-13.33,0-19.39-4.35-19.39-20.49s30.42-39.48,63-39.48S288.74,116.24,288.74,132.38Z"/><rect class="cls-8" x="210.74" y="174.89" width="154.11" height="4.55" rx="2.28"/><rect class="cls-9" x="246.42" y="99.73" width="75.92" height="25.81" rx="12"/><rect class="cls-9" x="254.77" y="39" width="59.21" height="59.21" rx="29.61"/><path class="cls-8" d="M241.1,157.43h14.42A23.53,23.53,0,0,1,279.06,181v0a23.53,23.53,0,0,1-23.53,23.53h0A23.53,23.53,0,0,1,232,181V166.54a9.11,9.11,0,0,1,9.11-9.11Z"/><path class="cls-8" d="M322.33,157.43h0A23.53,23.53,0,0,1,345.87,181v0a23.53,23.53,0,0,1-23.53,23.53H307.91a9.11,9.11,0,0,1-9.11-9.11V181A23.53,23.53,0,0,1,322.33,157.43Z" transform="translate(644.66 361.93) rotate(-180)"/><path class="cls-10" d="M358.83,512c2.89,0,5.26-3.92,5.26-8.71V403.05c0-58.65-28.94-106.63-64.3-106.63H276.93c-35.36,0-64.3,48-64.3,106.63V503.29c0,4.79,2.37,8.71,5.26,8.71"/><path class="cls-3" d="M274.46,279.65h32a61.45,61.45,0,0,1,61.45,61.45v.8a77.43,77.43,0,0,1-77.43,77.43h0A77.43,77.43,0,0,1,213,341.91v-.8a61.45,61.45,0,0,1,61.45-61.45Z"/><path class="cls-7" d="M292.35,414.79h0a115,115,0,0,1,115,115V721.89a9.11,9.11,0,0,1-9.11,9.11H186.44a9.11,9.11,0,0,1-9.11-9.11V529.8a115,115,0,0,1,115-115Z"/><path class="cls-11" d="M322.33,379.1H260.84a9.14,9.14,0,0,0-9.11,9.11v34.21a82.57,82.57,0,0,0,36.44,8.31h0l.76,0,.76,0h0c15.34,0,29.68-2,41.75-9.11V388.21A9.14,9.14,0,0,0,322.33,379.1Z"/><path class="cls-7" d="M322.83,281.91c-2.05,37.44-15.69,63.79-32.07,63.79h0l-.31,0-.32,0h0c-16.44,0-30.11-26.54-32.08-64.2a61.7,61.7,0,0,0-46.56,59.61v4.59c0,42.59,34.85,73.64,77.44,73.64h0l.76,0,.76,0h0c42.59,0,77.43-31,77.43-73.64v-4.59A61.68,61.68,0,0,0,322.83,281.91Z"/></g></svg>